<?xml version="1.0" encoding="UTF-8"?><svg id="Layer_2" xmlns="http://www.w3.org/2000/svg" viewBox="0 0 17.01 17.11"><defs><style>.cls-1{fill:#fff;}</style></defs><g id="Layer_1-2"><g><path class="cls-1" d="M4.29,11.69l-2.25,2.3-1.51-1.64-.38,.43-.14-.35,.67-.78V3.28c0-.43-.07-.73-.48-.95v-.26L1.82,0h.19V6.11l1.26-1.48,1.02,1.72v5.33ZM2.01,6.7v4.69l1.05,1.11V7.31l-.6-1.13-.45,.53Z"/><path class="cls-1" d="M7.3,12.34l.29-.43,.14,.35-1.25,1.55-1.05-1.64-.38,.43-.14-.35,.67-.78V3.64c0-.85-.04-1.05-.48-1.31v-.26L6.72,0h.19V11.65l.38,.69Z"/><path class="cls-1" d="M7.77,12.2l.51-.75V6.82l2.25-2.33,1.44,1.99v4.92l-2.2,2.42-1.4-1.83-.42,.61-.18-.39Zm2.96,.23V7.25l-1.15-1.38v5.18l1.15,1.38Z"/><path class="cls-1" d="M15.56,14.56c0-.7-.26-.92-.35-1.91l-.93,1.16-1.44-1.81V6.82l2.25-2.33,1.31,1.77,.42-.62,.18,.39-.48,.7v4.58c0,1.49,.29,1.48,.29,2.15,0,.78-.43,.98-.69,1.31l-1.85,2.35c-.21-.57-.56-.99-1.02-.99-.27,0-.54,.16-.75,.45l-.14-.17c.22-1.06,.81-1.99,1.59-1.99,.46,0,.92,.35,1.24,.95,.22-.05,.37-.37,.37-.81Zm-.38-2.6V7.51l-1.14-1.38v4.74l1.14,1.29c0-.07,0-.13,0-.2Z"/></g></g></svg>