<?xml version="1.0" encoding="utf-8"?>
<!-- Generator: Adobe Illustrator 26.1.0, SVG Export Plug-In . SVG Version: 6.00 Build 0)  -->
<svg version="1.1" xmlns="http://www.w3.org/2000/svg" xmlns:xlink="http://www.w3.org/1999/xlink" x="0px" y="0px"
	 viewBox="0 0 1188.5 565.3" style="enable-background:new 0 0 1188.5 565.3;" xml:space="preserve">
<style type="text/css">
	.st0{display:none;}
	.st1{display:inline;}
	.st2{font-family:'Chomsky';}
	.st3{font-size:433.674px;}
	.st4{letter-spacing:-11.9;}
	.st5{letter-spacing:2;}
	.st6{letter-spacing:-33.6;}
	.st7{fill:#FFFFFF;}
</style>
<g id="Layer_1" class="st0">
	<g id="Layer_2_00000025435787525398627970000017196930161337209510_" class="st1">
		<g id="Layer_1-2">
			<text transform="matrix(0.5056 0 0 1 0 385.3198)" class="st2 st3 st4">d</text>
			<text transform="matrix(0.5056 0 0 1 89.0161 385.3198)" class="st2 st3 st5">o</text>
			<text transform="matrix(0.5056 0 0 1 189.8623 385.3198)" class="st2 st3 st4">i</text>
			<text transform="matrix(0.5056 0 0 1 258.0488 385.3198)" class="st2 st3">n</text>
			<text transform="matrix(0.5056 0 0 1 385.4307 385.3198)" class="st2 st3 st6">N</text>
			<text transform="matrix(0.5056 0 0 1 525.3154 385.3198)" class="st2 st3 st4">um</text>
			<text transform="matrix(0.5056 0 0 1 808.3623 385.3198)" class="st2 st3 st5">b</text>
			<text transform="matrix(0.5056 0 0 1 911.1924 385.3198)" class="st2 st3 st4">e</text>
			<text transform="matrix(0.5056 0 0 1 1002.3926 385.3198)" class="st2 st3">r</text>
			<text transform="matrix(0.5056 0 0 1 1099.2988 385.3198)" class="st2 st3">s</text>
		</g>
	</g>
</g>
<g id="Layer_2">
	<g>
		<path class="st7" d="M38.4,216.3l-4.2,1.2l0-60.7l71.6,102.6l7.7-10.1l3.7,7.4l-8.9,11.7l-0.1,95.9l-45.5,43.8l-29.9-33.5l0-104
			L58,245.3L38.4,216.3z M59.5,356.9l22,24.9l0-101.6l-22-32.7V356.9z"/>
		<path class="st7" d="M123,374.8l10.6-14c0-29,0-58,0-87l46.7-43.8l29.8,37.3v92.4l-45.7,45.4l-29.2-34.4l-8.6,11.4L123,374.8z
			 M184.4,379.1v-97.3l-23.9-25.9v97.3L184.4,379.1z"/>
		<path class="st7" d="M285,372.7l-29.8,34l-19.9-29.2l-7,8.1l-3-6.5l12.9-14.6v-89.2l-7-14.6l-8,8.1l-3-6.5l27.8-30.8l15.9,30.8
			v102.1l7,11.3l9-9.7L285,372.7z M251.4,157.6l17.7,32.8l-19.8,28.4L231.6,186L251.4,157.6z"/>
		<path class="st7" d="M397.3,375.9L366.5,410l-20.9-30.8l7-11.3v-83.4l-14.9-21.1l-9,11.6v92.9l9,13L317.8,410l-23.9-30.8l8-11.3
			v-89.9l-8-14.6l-8,8.1l-3-6.5l28.8-32.4l16,29.1l22.8-29.1l23.5,32.9l8.7-11.6l3.7,7.4l-10,13.3v88.4l8.9,13l8-9.7L397.3,375.9z"
			/>
		<path class="st7" d="M429,306l-1,4.7c-8-3.4-14.7-15.4-14.7-31.3c0-21.2,11.2-38.2,25-38.2c0.1,0,0.2,0,0.3,0v-45.9
			c-3-5.7-6.2-9.4-9.2-9.4c-5.9,0-9.2,6.6-9.2,18.1l-4-1.6c-0.4-3-0.6-6.1-0.6-9.2c0-24.5,11.6-44.6,26-44.6
			c15.1,0,20.6,17.6,26.2,32.9l49.9,136.1c0-37.2,0-74.4,0-111.6c-8.6-1.2-15.9-7.3-20.9-14.9l-7.9,14.4l-3-4.9l25.8-48.7l4.1,0.1
			c3.4,7.1,8.7,14.5,16.1,14.5c6.9,0,12-7.6,12.6-17.7l2.8,0.1c1.7,5.2,2.5,11,2.5,16.9c0,23.4-12.2,38.6-26.5,40.3V405h-7.8
			l-69.5-192c-0.6-1.5-1.1-3.1-1.7-4.5v134.8c6.8,1.7,16.7,6.8,25.5,21.2l7-13l3,4.9L453.1,405c-4-7-9.7-14.6-17.3-14.6
			c-6,0-10.6,6.1-10.6,15.8c0,11.5,6.6,19.7,13.8,18.5l-1,6.3c-14.6,3.9-31-12.8-31-42.7c0-27.3,14.2-45.9,31.4-45.9
			c0.1,0,0.1,0,0.2,0V287c-0.7,0-1.5,0-2.2,0c-5.3,0-10.1,2.5-10.1,11C426.3,301.4,427.4,304.3,429,306z"/>
		<path class="st7" d="M544,266l-2.1-4.8l26.8-28.2c9.8,5.9,16.4,18.5,16.4,40.6V355l13,20.1l9.8-11.9l0-16.4v-69.5l-10.8-15.6
			l19.5-29.3l13.7,19.3l6.7-8.9l3.7,7.4l-9,11.8v80.4l0.1,14c0.1,10.2,1.5,18.6,5.6,23.2l7.7-10.3l3.8,8.5l-24.9,27.9
			c-7.6-0.6-14.4-11.3-15.9-32.9L582,406.4l-28.3-38.6l6.5-8.8l0-79.4c0,0,0-0.1,0-0.1c0-10.3-2.1-19.1-8.3-19.1
			C548.6,260.4,546,263.3,544,266z"/>
		<path class="st7" d="M731.4,410l-20.6-29.2l8.7-13v-83.4l-14.4-21.4l-9.1,9v95.8l9,13L685.2,410l-23.9-30.8l8-11.3v-89.9l-8-14.6
			l-8,8.1l-3-6.5l28.8-32.4l15.3,27.7l27.3-27.7l20.6,29l28.5-29l21.5,30.3l6.8-8.9l3.7,7.4l-10.3,13.6v85l9.7,16.1l8.9-10.9
			l0.1,12.4L780.6,410L760,380.8l8.7-13v-83.4l-14.4-21.4l-10.9,10.8v90.5l10.8,15.7L731.4,410z"/>
		<path class="st7" d="M901,365.2l-46.8,43.3l-31.3-30.8l-8,8.1l-3-6.5l13.9-14.6V207.3c0-8-1.5-13.7-9.9-17.8v-4.9l33.8-38.9h4
			v114.9l26.1-27.8L901,265V365.2z M853.7,271.6v88.1l21.8,20.8v-97.6l-12.4-21.2L853.7,271.6z"/>
		<path class="st7" d="M912,375.8l9.8-13v-89.1l49.7-42.2l20.9,51.9v1.6l-44.8,45.4v14.6l24.9,27.6l22.9-29.2l3,8.1l-42.8,56.8
			l-30.8-37.3l-9.2,12.1L912,375.8z M968.5,297.3l-16.9-39.8l-4,3.7v57.7L968.5,297.3z"/>
		<path class="st7" d="M1069.1,370.2l-31,36.5l-22.8-29.2l-7,8.1l-3-6.5l12.9-14.6v-89.2l-7-14.6l-8,8.1l-3-6.5l27.8-30.8l15.2,26.7
			l14.5-26.8h2.1c2,5.1,5.5,8.4,9.4,8.4c4.3,0,7.6-3.8,9.4-8.4h6.2c-2.4,41.9-14.5,47.3-20.6,47.3c-4.5,0-11.8-3.4-18.5-13.9v99.7
			l8.2,10.5l11.2-12.5L1069.1,370.2z"/>
		<path class="st7" d="M1088.6,391.1c0-14,3.4-26.4,19.7-51.1l-15.7-20.2v-47.4l42.9-40.6c3,7.2,8.1,14.8,15.1,14.8
			c5.4,0,9.9-6.1,10.4-14.1l0.1,0c0,0,0,0,0,0h5.9c-1.6,25.8-6.4,45.1-18.1,62.7l17.9,21.6v51.1l-41,40.6c-2.8-8.1-8-15.8-15.4-15.8
			c-4.9,0-9.8,4.5-9.8,12.8c0,4,1.3,6.9,3,8.4l-2,8.9C1094.4,418.1,1088.6,407,1088.6,391.1z M1121,334.3
			c-7.4,10.3-14.7,20.3-19.8,30.6c3.9-5.1,9-8.1,14.5-8.1c11.9,0,20.4,12.3,24.2,26l0-44.1l-11.5-14.9L1121,334.3z M1143.2,290.7
			c3-4.2,6.1-9.1,8.9-15.5c-3.2,2.3-6.7,3.5-10.4,3.5c-9,0-18.1-7.7-22.3-24.9v44.1l8.6,14.3L1143.2,290.7z"/>
	</g>
</g>
</svg>
