<?xml version="1.0" encoding="UTF-8"?><svg id="Layer_2" xmlns="http://www.w3.org/2000/svg" viewBox="0 0 18.79 16.94"><g id="Layer_1-2"><g><path d="M0,13.06c0-.75,.16-1.41,.95-2.72l-.76-1.08v-2.52l2.07-2.16c.15,.39,.39,.79,.73,.79,.26,0,.47-.32,.5-.75h.29c-.08,1.37-.31,2.4-.87,3.33l.86,1.15v2.72l-1.97,2.16c-.13-.43-.39-.84-.74-.84-.23,0-.47,.24-.47,.68,0,.21,.06,.37,.14,.45l-.1,.47c-.34-.24-.62-.83-.62-1.68Zm1.56-3.03c-.35,.55-.71,1.08-.95,1.63,.19-.27,.43-.43,.7-.43,.57,0,.98,.65,1.17,1.38v-2.35l-.55-.79-.36,.56Zm1.07-2.32c.14-.22,.29-.48,.43-.83-.15,.12-.32,.19-.5,.19-.43,0-.87-.41-1.08-1.32v2.35l.41,.76,.74-1.14Z"/><path d="M6.67,12.24l.31-.39,.18,.41-1.25,1.55-1.03-1.57-.38,.43-.17-.42,.67-.78V3.28c0-.29,0-.69-.48-.95v-.26L6.16,0h.19V6.68l1.25-2.1,1.06,1.59,.39-.58,.18,.39-.43,.63v5.14c0,1.85-.35,4.08-2.09,4.08-.1,0-.21-.01-.31-.04v-.43c.74,0,1.1-1.75,1.1-3.61V7.16l-.59-.89-.56,.94v4.44l.32,.59Z"/><path d="M9.48,12.2l.51-.75V6.82l2.25-2.33,1.44,1.99v4.92l-2.2,2.42-1.4-1.83-.42,.61-.18-.39Zm2.96,.23V7.25l-1.15-1.38v5.18l1.15,1.38Z"/><path d="M16.08,5.9v.33l1.26-1.7,.97,1.53,.3-.44,.18,.39-.37,.55v5.02c-.6,.6-1.15,1.3-1.66,2.08-.21-.22-.44-.43-.67-.61v.82c0,.69,.13,1.17,.46,1.26v.26l-1.43,1.55h-.19v-4.55c-.17-.06-.34-.11-.51-.15l.51-.78V6.96c0-.29-.09-.78-.39-.78-.08,0-.16,.05-.23,.13l-.11-.28,1.21-1.46c.28,.33,.52,.79,.67,1.34Zm0,5.8c.37,.27,.74,.55,1.09,.85V7.22l-.66-.98-.44,.6v4.88Z"/></g></g></svg>